<svg width="512" height="512" viewBox="0 0 512 512" fill="none" xmlns="http://www.w3.org/2000/svg">
<path d="M107 141.825C107 184.262 141.441 218.859 183.84 218.859C206.892 218.859 227.543 208.61 241.607 192.447V232.752V307.172V376.916H190.563V395.555H213.753V414.195H190.563V432.834H204.422V451.473H190.495V470.113H241.538V512H269.393V307.172V232.683V192.378C283.457 208.542 304.108 218.79 327.16 218.79C369.491 218.79 404 184.262 404 141.756C404 100.694 371.755 67.1295 331.277 64.9285C325.514 28.2687 293.817 0 255.534 0C217.252 0 185.486 28.2687 179.723 65.0661C139.245 67.1983 107 100.763 107 141.825ZM313.713 84.5997C310.557 108.81 292.719 128.413 269.462 134.121V131.439C273.509 108.398 291.073 89.9645 313.713 84.5997ZM241.607 134.121C218.349 128.413 200.443 108.81 197.356 84.5997C219.927 89.9645 237.491 108.398 241.607 131.508V134.121ZM385.956 141.825C385.956 174.289 359.611 200.701 327.229 200.701C298.551 200.701 274.607 179.929 269.53 152.623C303.216 146.364 329.218 118.027 332.031 83.1553C362.15 85.7002 385.956 111.011 385.956 141.825ZM255.534 18.0892C284.212 18.0892 308.156 38.8608 313.233 66.1666C295.326 69.468 279.615 78.9597 268.364 92.4406C266.237 87.4197 261.297 83.8431 255.534 83.8431C249.771 83.8431 244.763 87.4197 242.705 92.4406C231.453 79.0285 215.742 69.468 197.836 66.1666C202.913 38.8608 226.788 18.0892 255.534 18.0892ZM179.037 83.2241C181.85 118.096 207.852 146.433 241.538 152.692C236.462 179.998 212.518 200.769 183.84 200.769C151.457 200.769 125.112 174.358 125.112 141.894C125.044 111.011 148.85 85.7002 179.037 83.2241Z" fill="#B7B7B7"/>
</svg>
