<svg width="256" height="256" viewBox="0 0 256 256" fill="none" xmlns="http://www.w3.org/2000/svg">
<g clip-path="url(#clip0)">
<path d="M128.368 0.734253C57.9912 0.734253 0.735474 57.9871 0.735474 128.367C0.735474 198.747 57.9912 256 128.368 256C198.745 256 256.001 198.747 256.001 128.367C256.001 57.9871 198.745 0.734253 128.368 0.734253ZM242.125 128.367C242.125 191.104 191.087 242.128 128.368 242.128C65.6502 242.128 14.6117 191.104 14.6117 128.367C14.6117 65.6306 65.6344 14.6058 128.368 14.6058C191.102 14.6058 242.125 65.6306 242.125 128.367Z" fill="#B9B8B8"/>
<path d="M198.53 147.701C198.16 146.608 197.476 145.648 196.565 144.94C195.653 144.232 194.554 143.807 193.403 143.718C192.252 143.63 191.101 143.881 190.092 144.441C189.082 145.001 188.26 145.845 187.726 146.868C175.826 169.688 153.001 183.864 128.158 183.864C103.315 183.864 80.4906 169.709 68.6012 146.873C67.9035 145.529 66.7136 144.505 65.2798 144.017C63.8459 143.529 62.2789 143.613 60.9056 144.252C60.1818 144.589 59.5335 145.069 58.9993 145.663C58.4652 146.256 58.0562 146.951 57.7969 147.707C57.5376 148.457 57.4345 149.252 57.494 150.044C57.5535 150.835 57.7744 151.606 58.1429 152.31C72.0663 179.046 98.8961 195.649 128.153 195.649C157.41 195.649 184.245 179.041 198.174 152.31C198.545 151.606 198.768 150.835 198.829 150.042C198.89 149.25 198.789 148.453 198.53 147.701V147.701Z" fill="#B9B8B8"/>
<path d="M104.778 78.7054C104.379 78.4696 103.933 78.3223 103.472 78.2734C103.011 78.2246 102.545 78.2754 102.105 78.4223C101.631 78.5905 101.199 78.8581 100.837 79.2071C100.476 79.5562 100.193 79.9785 100.008 80.4459C96.7104 88.4459 90.252 93.6202 83.5576 93.6202C76.8633 93.6202 70.4048 88.4511 67.1075 80.4512C66.9225 79.9838 66.6397 79.5614 66.2781 79.2124C65.9164 78.8633 65.4842 78.5958 65.0106 78.4276C64.5706 78.281 64.1043 78.2304 63.6431 78.2792C63.1819 78.328 62.7365 78.4752 62.337 78.7107C61.5652 79.2056 60.9928 79.957 60.7205 80.8325C60.4481 81.7081 60.4934 82.6516 60.8482 83.497C65.3094 94.3279 74.0115 101.054 83.5681 101.054C93.1247 101.054 101.827 94.3279 106.288 83.497C106.642 82.6486 106.685 81.7022 106.409 80.8253C106.132 79.9484 105.555 79.1974 104.778 78.7054V78.7054Z" fill="#B9B8B8"/>
<path d="M194.421 78.7054C194.021 78.4699 193.576 78.3227 193.115 78.2739C192.653 78.2251 192.187 78.2757 191.747 78.4223C191.274 78.5905 190.841 78.8581 190.48 79.2071C190.118 79.5561 189.835 79.9785 189.65 80.4459C186.353 88.4459 179.895 93.6202 173.2 93.6202C166.506 93.6202 160.047 88.4511 156.755 80.4511C156.57 79.9837 156.288 79.5613 155.926 79.2123C155.564 78.8633 155.132 78.5957 154.658 78.4275C154.218 78.2809 153.752 78.2303 153.291 78.2791C152.83 78.328 152.384 78.4751 151.985 78.7106C151.212 79.2049 150.639 79.9562 150.367 80.832C150.094 81.7078 150.14 82.6517 150.496 83.497C154.952 94.3279 163.659 101.054 173.216 101.054C182.772 101.054 191.475 94.3279 195.936 83.497C196.29 82.648 196.332 81.7011 196.054 80.8242C195.777 79.9472 195.198 79.1966 194.421 78.7054Z" fill="#B9B8B8"/>
</g>
<defs>
<clipPath id="clip0">
<rect width="256" height="256" fill="white"/>
</clipPath>
</defs>
</svg>
