<svg width="512" height="512" viewBox="0 0 512 512" fill="none" xmlns="http://www.w3.org/2000/svg">
<g clip-path="url(#clip0)">
<path d="M256.737 1.46851C115.982 1.46851 1.47095 115.974 1.47095 256.734C1.47095 397.494 115.982 512 256.737 512C397.491 512 512.002 397.494 512.002 256.734C512.002 115.974 397.491 1.46851 256.737 1.46851ZM484.25 256.734C484.25 382.207 382.173 484.257 256.737 484.257C131.3 484.257 29.2234 382.207 29.2234 256.734C29.2234 131.261 131.269 29.2116 256.737 29.2116C382.205 29.2116 484.25 131.261 484.25 256.734Z" fill="#B9B8B8"/>
<path d="M397.06 295.403C396.319 293.217 394.952 291.296 393.129 289.88C391.307 288.464 389.108 287.614 386.806 287.437C384.505 287.259 382.202 287.762 380.183 288.881C378.165 290.001 376.52 291.689 375.452 293.736C351.652 339.377 306.003 367.728 256.317 367.728C206.631 367.728 160.981 339.418 137.202 293.746C135.807 291.057 133.427 289.011 130.56 288.034C127.692 287.057 124.558 287.225 121.811 288.504C120.364 289.178 119.067 290.138 117.999 291.325C116.931 292.512 116.113 293.903 115.594 295.413C115.075 296.914 114.869 298.505 114.988 300.088C115.107 301.671 115.549 303.213 116.286 304.619C144.133 358.092 197.792 391.298 256.306 391.298C314.82 391.298 368.49 358.082 396.348 304.619C397.09 303.213 397.536 301.67 397.658 300.085C397.781 298.5 397.577 296.906 397.06 295.403Z" fill="#B9B8B8"/>
<path d="M209.556 157.411C208.758 156.939 207.867 156.645 206.944 156.547C206.022 156.449 205.089 156.551 204.209 156.845C203.262 157.181 202.398 157.716 201.674 158.414C200.951 159.112 200.385 159.957 200.016 160.892C193.421 176.892 180.504 187.24 167.115 187.24C153.727 187.24 140.81 176.902 134.215 160.902C133.845 159.968 133.279 159.123 132.556 158.425C131.833 157.727 130.968 157.192 130.021 156.855C129.141 156.562 128.209 156.461 127.286 156.558C126.364 156.656 125.473 156.95 124.674 157.421C123.13 158.411 121.986 159.914 121.441 161.665C120.896 163.416 120.987 165.303 121.696 166.994C130.619 188.656 148.023 202.108 167.136 202.108C186.249 202.108 203.654 188.656 212.576 166.994C213.285 165.297 213.37 163.404 212.818 161.651C212.265 159.897 211.11 158.395 209.556 157.411Z" fill="#B9B8B8"/>
<path d="M388.842 157.411C388.042 156.94 387.152 156.645 386.229 156.548C385.307 156.45 384.374 156.551 383.494 156.844C382.547 157.181 381.683 157.716 380.959 158.414C380.236 159.112 379.671 159.957 379.301 160.892C372.706 176.892 359.789 187.24 346.4 187.24C333.012 187.24 320.095 176.902 313.51 160.902C313.141 159.967 312.575 159.123 311.852 158.425C311.128 157.727 310.264 157.191 309.317 156.855C308.437 156.562 307.504 156.461 306.582 156.558C305.659 156.656 304.769 156.95 303.97 157.421C302.424 158.41 301.278 159.912 300.733 161.664C300.189 163.416 300.28 165.303 300.992 166.994C309.904 188.656 327.319 202.108 346.432 202.108C365.545 202.108 382.949 188.656 391.872 166.994C392.579 165.296 392.663 163.402 392.109 161.648C391.554 159.894 390.397 158.393 388.842 157.411Z" fill="#B9B8B8"/>
</g>
<defs>
<clipPath id="clip0">
<rect width="512" height="512" fill="white"/>
</clipPath>
</defs>
</svg>
