<svg width="512" height="512" viewBox="0 0 512 512" fill="none" xmlns="http://www.w3.org/2000/svg">
<path fill-rule="evenodd" clip-rule="evenodd" d="M40.1638 317.935C-6.72129 290.63 -6.72124 222.37 40.1638 195.065L84.7243 169.115C73.2968 195.924 66.9675 225.466 66.9675 256.5C66.9675 287.533 73.2969 317.076 84.7245 343.885L40.1638 317.935ZM312.286 476.41L84.7245 343.885C118.328 422.72 196.015 477.923 286.484 477.923C295.213 477.923 303.823 477.409 312.286 476.41ZM462.39 388.982C427.213 436.427 373.612 469.167 312.286 476.41L356.898 502.39C403.783 529.694 462.39 495.564 462.39 440.956V388.982ZM462.39 124.018V388.982C489.78 352.039 506 306.18 506 256.5C506 206.82 489.78 160.961 462.39 124.018ZM312.287 36.5899L84.7243 169.115C118.327 90.2802 196.014 35.0763 286.484 35.0763C295.213 35.0763 303.824 35.5903 312.287 36.5899ZM312.287 36.5899C373.612 43.8328 427.213 76.5727 462.39 124.018V72.0445C462.39 17.4359 403.783 -16.6945 356.898 10.6098L312.287 36.5899ZM384.422 256.5C384.422 201.94 340.574 157.711 286.484 157.711C232.394 157.711 188.546 201.94 188.546 256.5C188.546 311.059 232.394 355.289 286.484 355.289C340.574 355.289 384.422 311.059 384.422 256.5Z" fill="#B9B8B8"/>
</svg>
