<svg xmlns="http://www.w3.org/2000/svg" viewBox="0 0 512 512"><title>Logo</title><g id="Layer_84" data-name="Layer 84"><path d="M256,0C114.85,0,0,114.85,0,256S114.85,512,256,512,512,397.17,512,256,397.15,0,256,0Zm0,451.52C148.2,451.52,60.48,363.8,60.48,256S148.2,60.48,256,60.48,451.52,148.2,451.52,256,363.8,451.52,256,451.52Zm59.3-119.1a73.39,73.39,0,0,1-118.73,0H161.66a103.71,103.71,0,0,0,188.55,0ZM237.85,228a25.3,25.3,0,0,1-.82,2.65A47.09,47.09,0,0,1,153.53,242l-.09-.14a.74.74,0,0,0-.12-.16l-.49-.73c-.13.08-.23.16-.33.21a11.58,11.58,0,0,1-6.47,1.95,11.89,11.89,0,0,1,0-23.77,11.58,11.58,0,0,1,6.47,2,11.72,11.72,0,0,1,6.49-2,11.88,11.88,0,0,1,11.84,11A26.15,26.15,0,0,0,215.54,228Zm58.61,0a26.15,26.15,0,0,0,44.71,2.35,11.88,11.88,0,0,1,11.84-11,11.72,11.72,0,0,1,6.49,2,11.58,11.58,0,0,1,6.47-2,11.89,11.89,0,0,1,0,23.77,11.58,11.58,0,0,1-6.47-2c-.1,0-.2-.13-.33-.21l-.49.73a.74.74,0,0,0-.12.16l-.09.14A47.09,47.09,0,0,1,275,230.65a25.3,25.3,0,0,1-.82-2.65ZM147.92,265.44v43.22H130.65V282.74h-17.3v-17.3Zm248.43,0v17.3H379.08v25.92h-17.3V265.44Z"/></g></svg>