<svg width="512" height="512" viewBox="0 0 512 512" fill="none" xmlns="http://www.w3.org/2000/svg">
<rect x="162" y="162" width="188.444" height="188.444" rx="94.2222" fill="url(#paint0_radial)"/>
<g filter="url(#filter0_d)">
<rect x="205" y="203" width="103" height="106" rx="51.5" fill="url(#paint1_radial)"/>
</g>
<path d="M214.186 148.314C214.186 156.044 220.452 162.31 228.181 162.31C235.911 162.31 242.176 156.044 242.176 148.314C242.176 140.585 235.911 134.319 228.181 134.319C220.452 134.319 214.186 140.585 214.186 148.314Z" fill="url(#paint2_linear)"/>
<path d="M130.215 366.017C130.215 373.747 136.481 380.012 144.21 380.012C151.94 380.012 158.205 373.747 158.205 366.017C158.205 358.288 151.94 352.022 144.21 352.022C136.481 352.022 130.215 358.288 130.215 366.017Z" fill="url(#paint3_linear)"/>
<path d="M147.321 233.841C147.321 241.57 153.586 247.836 161.316 247.836C169.045 247.836 175.311 241.57 175.311 233.841C175.311 226.112 169.045 219.846 161.316 219.846C153.586 219.846 147.321 226.112 147.321 233.841Z" fill="url(#paint4_linear)"/>
<path d="M110 114.105C110 119.687 114.525 124.212 120.108 124.212C125.69 124.212 130.215 119.687 130.215 114.105C130.215 108.522 125.69 103.997 120.108 103.997C114.525 103.997 110 108.522 110 114.105Z" fill="url(#paint5_linear)"/>
<path d="M189.306 408.002C189.306 411.867 192.439 415 196.303 415C200.168 415 203.301 411.867 203.301 408.002C203.301 404.138 200.168 401.005 196.303 401.005C192.439 401.005 189.306 404.138 189.306 408.002Z" fill="url(#paint6_linear)"/>
<path d="M274.832 103.998C274.832 107.862 277.965 110.995 281.829 110.995C285.694 110.995 288.827 107.862 288.827 103.998C288.827 100.133 285.694 97 281.829 97C277.965 97 274.832 100.133 274.832 103.998Z" fill="url(#paint7_linear)"/>
<path d="M246.69 377.747C247.585 382.987 252.558 386.509 257.799 385.615C263.039 384.72 266.561 379.746 265.667 374.506C264.772 369.266 259.799 365.743 254.558 366.638C249.318 367.533 245.796 372.506 246.69 377.747Z" fill="url(#paint8_linear)"/>
<path d="M344.623 315.825C344.623 311.531 341.142 308.05 336.848 308.05C332.554 308.05 329.073 311.531 329.073 315.825C329.073 320.119 332.554 323.6 336.848 323.6C341.142 323.6 344.623 320.119 344.623 315.825Z" fill="url(#paint9_linear)"/>
<path d="M342.463 235.483C342.463 232.382 339.949 229.867 336.848 229.867C333.746 229.867 331.232 232.382 331.232 235.483C331.232 238.584 333.746 241.098 336.848 241.098C339.949 241.098 342.463 238.584 342.463 235.483Z" fill="url(#paint10_linear)"/>
<path d="M391.273 194.879C391.273 190.585 387.792 187.104 383.498 187.104C379.204 187.104 375.723 190.585 375.723 194.879C375.723 199.173 379.204 202.654 383.498 202.654C387.792 202.654 391.273 199.173 391.273 194.879Z" fill="url(#paint11_linear)"/>
<path d="M381.77 268.31C381.77 264.016 378.289 260.535 373.995 260.535C369.701 260.535 366.22 264.016 366.22 268.31C366.22 272.604 369.701 276.085 373.995 276.085C378.289 276.085 381.77 272.604 381.77 268.31Z" fill="url(#paint12_linear)"/>
<path d="M402.504 334.831C402.504 331.729 399.99 329.215 396.888 329.215C393.787 329.215 391.273 331.729 391.273 334.831C391.273 337.932 393.787 340.446 396.888 340.446C399.99 340.446 402.504 337.932 402.504 334.831Z" fill="url(#paint13_linear)"/>
<path d="M314.818 279.541C314.818 277.394 313.078 275.653 310.931 275.653C308.784 275.653 307.043 277.394 307.043 279.541C307.043 281.688 308.784 283.428 310.931 283.428C313.078 283.428 314.818 281.688 314.818 279.541Z" fill="url(#paint14_linear)"/>
<path d="M358.445 171.554C358.445 169.407 356.705 167.667 354.557 167.667C352.41 167.667 350.67 169.407 350.67 171.554C350.67 173.701 352.41 175.442 354.557 175.442C356.705 175.442 358.445 173.701 358.445 171.554Z" fill="url(#paint15_linear)"/>
<path d="M310.931 340.446C310.931 338.299 309.19 336.558 307.043 336.558C304.896 336.558 303.156 338.299 303.156 340.446C303.156 342.593 304.896 344.333 307.043 344.333C309.19 344.333 310.931 342.593 310.931 340.446Z" fill="url(#paint16_linear)"/>
<path d="M326.565 188.363C326.068 185.452 323.305 183.495 320.394 183.992C317.482 184.489 315.525 187.252 316.022 190.164C316.52 193.075 319.283 195.032 322.194 194.535C325.105 194.038 327.062 191.275 326.565 188.363Z" fill="url(#paint17_linear)"/>
<defs>
<filter id="filter0_d" x="193" y="200" width="115" height="118" filterUnits="userSpaceOnUse" color-interpolation-filters="sRGB">
<feFlood flood-opacity="0" result="BackgroundImageFix"/>
<feColorMatrix in="SourceAlpha" type="matrix" values="0 0 0 0 0 0 0 0 0 0 0 0 0 0 0 0 0 0 127 0" result="hardAlpha"/>
<feMorphology radius="7" operator="erode" in="SourceAlpha" result="effect1_dropShadow"/>
<feOffset dx="-6" dy="3"/>
<feGaussianBlur stdDeviation="6.5"/>
<feColorMatrix type="matrix" values="0 0 0 0 0 0 0 0 0 0 0 0 0 0 0 0 0 0 0.25 0"/>
<feBlend mode="normal" in2="BackgroundImageFix" result="effect1_dropShadow"/>
<feBlend mode="normal" in="SourceGraphic" in2="effect1_dropShadow" result="shape"/>
</filter>
<radialGradient id="paint0_radial" cx="0" cy="0" r="1" gradientUnits="userSpaceOnUse" gradientTransform="translate(314.39 185.075) rotate(137.057) scale(179.936)">
<stop stop-color="#D3B0B0"/>
<stop offset="1" stop-color="#A7A7A7"/>
</radialGradient>
<radialGradient id="paint1_radial" cx="0" cy="0" r="1" gradientUnits="userSpaceOnUse" gradientTransform="translate(276.215 207.141) rotate(130.196) scale(99.7431 99.3062)">
<stop stop-color="#AD8D8D"/>
<stop offset="1" stop-color="#999696"/>
</radialGradient>
<linearGradient id="paint2_linear" x1="242.176" y1="148.314" x2="214.186" y2="148.314" gradientUnits="userSpaceOnUse">
<stop stop-color="#787878"/>
<stop offset="1" stop-color="#A08A8A"/>
</linearGradient>
<linearGradient id="paint3_linear" x1="158.205" y1="366.017" x2="130.215" y2="366.017" gradientUnits="userSpaceOnUse">
<stop stop-color="#787878"/>
<stop offset="1" stop-color="#A08A8A"/>
</linearGradient>
<linearGradient id="paint4_linear" x1="175.311" y1="233.841" x2="147.321" y2="233.841" gradientUnits="userSpaceOnUse">
<stop stop-color="#787878"/>
<stop offset="1" stop-color="#A08A8A"/>
</linearGradient>
<linearGradient id="paint5_linear" x1="130.215" y1="114.105" x2="110" y2="114.105" gradientUnits="userSpaceOnUse">
<stop stop-color="#787878"/>
<stop offset="1" stop-color="#A08A8A"/>
</linearGradient>
<linearGradient id="paint6_linear" x1="203.301" y1="408.002" x2="189.306" y2="408.002" gradientUnits="userSpaceOnUse">
<stop stop-color="#787878"/>
<stop offset="1" stop-color="#A08A8A"/>
</linearGradient>
<linearGradient id="paint7_linear" x1="288.827" y1="103.998" x2="274.832" y2="103.998" gradientUnits="userSpaceOnUse">
<stop stop-color="#787878"/>
<stop offset="1" stop-color="#A08A8A"/>
</linearGradient>
<linearGradient id="paint8_linear" x1="265.667" y1="374.506" x2="246.69" y2="377.747" gradientUnits="userSpaceOnUse">
<stop stop-color="#787878"/>
<stop offset="1" stop-color="#A08A8A"/>
</linearGradient>
<linearGradient id="paint9_linear" x1="329.073" y1="315.825" x2="344.623" y2="315.825" gradientUnits="userSpaceOnUse">
<stop stop-color="#8E8383"/>
<stop offset="1" stop-color="#C7A4A4"/>
</linearGradient>
<linearGradient id="paint10_linear" x1="331.232" y1="235.483" x2="342.463" y2="235.483" gradientUnits="userSpaceOnUse">
<stop stop-color="#8E8383"/>
<stop offset="1" stop-color="#C7A4A4"/>
</linearGradient>
<linearGradient id="paint11_linear" x1="375.723" y1="194.879" x2="391.273" y2="194.879" gradientUnits="userSpaceOnUse">
<stop stop-color="#8E8383"/>
<stop offset="1" stop-color="#C7A4A4"/>
</linearGradient>
<linearGradient id="paint12_linear" x1="366.22" y1="268.31" x2="381.77" y2="268.31" gradientUnits="userSpaceOnUse">
<stop stop-color="#8E8383"/>
<stop offset="1" stop-color="#C7A4A4"/>
</linearGradient>
<linearGradient id="paint13_linear" x1="391.273" y1="334.831" x2="402.504" y2="334.831" gradientUnits="userSpaceOnUse">
<stop stop-color="#8E8383"/>
<stop offset="1" stop-color="#C7A4A4"/>
</linearGradient>
<linearGradient id="paint14_linear" x1="307.043" y1="279.541" x2="314.818" y2="279.541" gradientUnits="userSpaceOnUse">
<stop stop-color="#8E8383"/>
<stop offset="1" stop-color="#C7A4A4"/>
</linearGradient>
<linearGradient id="paint15_linear" x1="350.67" y1="171.554" x2="358.445" y2="171.554" gradientUnits="userSpaceOnUse">
<stop stop-color="#8E8383"/>
<stop offset="1" stop-color="#C7A4A4"/>
</linearGradient>
<linearGradient id="paint16_linear" x1="303.156" y1="340.446" x2="310.931" y2="340.446" gradientUnits="userSpaceOnUse">
<stop stop-color="#8E8383"/>
<stop offset="1" stop-color="#C7A4A4"/>
</linearGradient>
<linearGradient id="paint17_linear" x1="316.022" y1="190.164" x2="326.565" y2="188.363" gradientUnits="userSpaceOnUse">
<stop stop-color="#8E8383"/>
<stop offset="1" stop-color="#C7A4A4"/>
</linearGradient>
</defs>
</svg>
