<svg width="512" height="512" viewBox="0 0 512 512" fill="none" xmlns="http://www.w3.org/2000/svg">
<g clip-path="url(#clip0)">
<path d="M162.05 88.61C162.05 100.601 171.796 110.322 183.818 110.322C195.84 110.322 205.586 100.601 205.586 88.61C205.586 76.6188 195.84 66.8979 183.818 66.8979C171.796 66.8979 162.05 76.6188 162.05 88.61Z" fill="black" fill-opacity="0.1"/>
<path d="M168.096 312.968C168.096 321.629 175.135 328.649 183.818 328.649C192.5 328.649 199.539 321.629 199.539 312.968C199.539 304.308 192.5 297.287 183.818 297.287C175.135 297.287 168.096 304.308 168.096 312.968Z" fill="black" fill-opacity="0.1"/>
<path d="M31.4426 426.355C31.4426 438.346 41.1884 448.067 53.2104 448.067C65.2325 448.067 74.9783 438.346 74.9783 426.355C74.9783 414.363 65.2325 404.643 53.2104 404.643C41.1884 404.643 31.4426 414.363 31.4426 426.355Z" fill="black" fill-opacity="0.1"/>
<path d="M58.0479 221.296C58.0479 233.287 67.7937 243.008 79.8158 243.008C91.8378 243.008 101.584 233.287 101.584 221.296C101.584 209.304 91.8378 199.584 79.8158 199.584C67.7937 199.584 58.0479 209.304 58.0479 221.296Z" fill="black" fill-opacity="0.1"/>
<path d="M0 35.5361C-3.79528e-07 44.1964 7.03864 51.217 15.7212 51.217C24.4038 51.217 31.4425 44.1964 31.4425 35.5361C31.4425 26.8757 24.4038 19.8551 15.7212 19.8551C7.03864 19.8551 3.79529e-07 26.8757 0 35.5361Z" fill="black" fill-opacity="0.1"/>
<path d="M245.493 189.935C245.493 195.93 250.366 200.791 256.377 200.791C262.388 200.791 267.261 195.93 267.261 189.935C267.261 183.939 262.388 179.078 256.377 179.078C250.366 179.078 245.493 183.939 245.493 189.935Z" fill="black" fill-opacity="0.1"/>
<path d="M123.351 491.49C123.351 497.485 128.224 502.346 134.235 502.346C140.246 502.346 145.119 497.485 145.119 491.49C145.119 485.494 140.246 480.634 134.235 480.634C128.224 480.634 123.351 485.494 123.351 491.49Z" fill="black" fill-opacity="0.1"/>
<path d="M256.378 19.856C256.378 25.8517 261.251 30.7121 267.262 30.7121C273.273 30.7121 278.145 25.8517 278.145 19.856C278.145 13.8604 273.273 9 267.262 9C261.251 9 256.378 13.8604 256.378 19.856Z" fill="black" fill-opacity="0.1"/>
<path d="M212.606 444.551C213.998 452.68 221.734 458.145 229.884 456.757C238.035 455.369 243.514 447.653 242.122 439.524C240.73 431.394 232.995 425.929 224.844 427.317C216.694 428.705 211.215 436.421 212.606 444.551Z" fill="black" fill-opacity="0.1"/>
<path d="M428.52 356.686C428.52 350.509 423.499 345.501 417.306 345.501C411.113 345.501 406.092 350.509 406.092 356.686C406.092 362.864 411.113 367.871 417.306 367.871C423.499 367.871 428.52 362.864 428.52 356.686Z" fill="black" fill-opacity="0.1"/>
<path d="M425.404 241.108C425.404 236.647 421.778 233.03 417.306 233.03C412.833 233.03 409.207 236.647 409.207 241.108C409.207 245.569 412.833 249.186 417.306 249.186C421.778 249.186 425.404 245.569 425.404 241.108Z" fill="black" fill-opacity="0.1"/>
<path d="M495.802 182.697C495.802 176.52 490.782 171.512 484.589 171.512C478.395 171.512 473.375 176.52 473.375 182.697C473.375 188.874 478.395 193.882 484.589 193.882C490.782 193.882 495.802 188.874 495.802 182.697Z" fill="black" fill-opacity="0.1"/>
<path d="M482.097 288.333C482.097 282.156 477.076 277.148 470.883 277.148C464.69 277.148 459.669 282.156 459.669 288.333C459.669 294.511 464.69 299.518 470.883 299.518C477.076 299.518 482.097 294.511 482.097 288.333Z" fill="black" fill-opacity="0.1"/>
<path d="M512 384.027C512 379.566 508.374 375.949 503.901 375.949C499.428 375.949 495.802 379.566 495.802 384.027C495.802 388.489 499.428 392.106 503.901 392.106C508.374 392.106 512 388.489 512 384.027Z" fill="black" fill-opacity="0.1"/>
<path d="M385.533 304.488C385.533 301.4 383.023 298.896 379.927 298.896C376.83 298.896 374.32 301.4 374.32 304.488C374.32 307.577 376.83 310.081 379.927 310.081C383.023 310.081 385.533 307.577 385.533 304.488Z" fill="black" fill-opacity="0.1"/>
<path d="M448.455 149.142C448.455 146.053 445.945 143.55 442.848 143.55C439.752 143.55 437.241 146.053 437.241 149.142C437.241 152.231 439.752 154.735 442.848 154.735C445.945 154.735 448.455 152.231 448.455 149.142Z" fill="black" fill-opacity="0.1"/>
<path d="M379.927 392.105C379.927 389.016 377.417 386.512 374.32 386.512C371.223 386.512 368.713 389.016 368.713 392.105C368.713 395.193 371.223 397.697 374.32 397.697C377.417 397.697 379.927 395.193 379.927 392.105Z" fill="black" fill-opacity="0.1"/>
<path d="M402.475 173.323C401.759 169.135 397.774 166.32 393.575 167.035C389.376 167.75 386.553 171.725 387.27 175.913C387.987 180.101 391.972 182.916 396.171 182.201C400.37 181.486 403.192 177.511 402.475 173.323Z" fill="black" fill-opacity="0.1"/>
<path d="M441.335 273.204C441.335 374.534 358.98 456.679 257.389 456.679C155.798 456.679 73.4426 374.534 73.4426 273.204C73.4426 171.874 155.798 89.7294 257.389 89.7294C358.98 89.7294 441.335 171.874 441.335 273.204Z" fill="black" fill-opacity="0.1"/>
<path d="M386.812 273.204C386.812 344.655 328.741 402.578 257.107 402.578C185.472 402.578 127.401 344.655 127.401 273.204C127.401 201.753 185.472 143.831 257.107 143.831C328.741 143.831 386.812 201.753 386.812 273.204Z" fill="black" fill-opacity="0.1"/>
<path d="M330.57 273.204C330.57 313.476 297.839 346.123 257.463 346.123C217.087 346.123 184.356 313.476 184.356 273.204C184.356 232.932 217.087 200.284 257.463 200.284C297.839 200.284 330.57 232.932 330.57 273.204Z" fill="black" fill-opacity="0.1"/>
</g>
<defs>
<clipPath id="clip0">
<rect width="512" height="512" fill="white"/>
</clipPath>
</defs>
</svg>
