<svg width="512" height="512" viewBox="0 0 512 512" fill="none" xmlns="http://www.w3.org/2000/svg">
<rect x="106.954" y="108.201" width="296.997" height="296.296" rx="148.148" fill="url(#paint0_radial)"/>
<g filter="url(#filter0_d)">
<rect x="174.725" y="172.667" width="162.333" height="166.667" rx="81.1665" fill="url(#paint1_radial)"/>
</g>
<path d="M189.202 86.6831C189.202 98.8361 199.078 108.688 211.259 108.688C223.441 108.688 233.316 98.8361 233.316 86.6831C233.316 74.5302 223.441 64.6782 211.259 64.6782C199.078 64.6782 189.202 74.5302 189.202 86.6831Z" fill="url(#paint2_linear)"/>
<path d="M56.8602 428.983C56.8602 441.136 66.7355 450.988 78.9172 450.988C91.0989 450.988 100.974 441.136 100.974 428.983C100.974 416.83 91.0989 406.978 78.9172 406.978C66.7355 406.978 56.8602 416.83 56.8602 428.983Z" fill="url(#paint3_linear)"/>
<path d="M83.819 221.159C83.819 233.312 93.6942 243.164 105.876 243.164C118.058 243.164 127.933 233.312 127.933 221.159C127.933 209.006 118.058 199.154 105.876 199.154C93.6942 199.154 83.819 209.006 83.819 221.159Z" fill="url(#paint4_linear)"/>
<path d="M24.9999 32.8942C24.9999 41.6713 32.1321 48.7866 40.93 48.7866C49.7279 48.7866 56.86 41.6713 56.86 32.8942C56.86 24.117 49.7279 17.0017 40.93 17.0017C32.1321 17.0017 24.9999 24.117 24.9999 32.8942Z" fill="url(#paint5_linear)"/>
<path d="M149.99 494.998C149.99 501.074 154.927 506 161.018 506C167.109 506 172.047 501.074 172.047 494.998C172.047 488.921 167.109 483.995 161.018 483.995C154.927 483.995 149.99 488.921 149.99 494.998Z" fill="url(#paint6_linear)"/>
<path d="M284.783 17.0025C284.783 23.0789 289.72 28.0049 295.811 28.0049C301.902 28.0049 306.84 23.079 306.84 17.0025C306.84 10.926 301.902 6 295.811 6C289.72 6 284.783 10.926 284.783 17.0025Z" fill="url(#paint7_linear)"/>
<path d="M240.43 447.425C241.841 455.665 249.679 461.204 257.938 459.797C266.197 458.39 271.748 450.57 270.338 442.331C268.928 434.091 261.09 428.553 252.831 429.96C244.572 431.366 239.02 439.186 240.43 447.425Z" fill="url(#paint8_linear)"/>
<path d="M394.777 350.065C394.777 343.313 389.29 337.84 382.523 337.84C375.755 337.84 370.269 343.313 370.269 350.065C370.269 356.816 375.755 362.29 382.523 362.29C389.29 362.29 394.777 356.816 394.777 350.065Z" fill="url(#paint9_linear)"/>
<path d="M391.373 223.74C391.373 218.864 387.41 214.911 382.523 214.911C377.635 214.911 373.673 218.864 373.673 223.74C373.673 228.617 377.635 232.57 382.523 232.57C387.41 232.57 391.373 228.617 391.373 223.74Z" fill="url(#paint10_linear)"/>
<path d="M468.3 159.898C468.3 153.146 462.814 147.673 456.046 147.673C449.278 147.673 443.792 153.146 443.792 159.898C443.792 166.65 449.278 172.123 456.046 172.123C462.814 172.123 468.3 166.65 468.3 159.898Z" fill="url(#paint11_linear)"/>
<path d="M453.323 275.356C453.323 268.604 447.837 263.131 441.069 263.131C434.301 263.131 428.815 268.604 428.815 275.356C428.815 282.108 434.301 287.581 441.069 287.581C447.837 287.581 453.323 282.108 453.323 275.356Z" fill="url(#paint12_linear)"/>
<path d="M486 379.948C486 375.072 482.038 371.119 477.15 371.119C472.262 371.119 468.3 375.072 468.3 379.948C468.3 384.824 472.262 388.777 477.15 388.777C482.038 388.777 486 384.824 486 379.948Z" fill="url(#paint13_linear)"/>
<path d="M347.804 293.014C347.804 289.638 345.06 286.902 341.677 286.902C338.293 286.902 335.55 289.638 335.55 293.014C335.55 296.39 338.293 299.127 341.677 299.127C345.06 299.127 347.804 296.39 347.804 293.014Z" fill="url(#paint14_linear)"/>
<path d="M416.561 123.224C416.561 119.848 413.818 117.111 410.434 117.111C407.05 117.111 404.307 119.848 404.307 123.224C404.307 126.6 407.05 129.336 410.434 129.336C413.818 129.336 416.561 126.6 416.561 123.224Z" fill="url(#paint15_linear)"/>
<path d="M341.676 388.776C341.676 385.401 338.933 382.664 335.549 382.664C332.166 382.664 329.422 385.401 329.422 388.776C329.422 392.152 332.166 394.889 335.549 394.889C338.933 394.889 341.676 392.152 341.676 388.776Z" fill="url(#paint16_linear)"/>
<path d="M366.317 149.653C365.533 145.076 361.179 141.999 356.59 142.78C352.002 143.562 348.918 147.906 349.701 152.484C350.485 157.061 354.839 160.138 359.428 159.357C364.016 158.575 367.1 154.231 366.317 149.653Z" fill="url(#paint17_linear)"/>
<defs>
<filter id="filter0_d" x="162.725" y="169.667" width="174.333" height="178.667" filterUnits="userSpaceOnUse" color-interpolation-filters="sRGB">
<feFlood flood-opacity="0" result="BackgroundImageFix"/>
<feColorMatrix in="SourceAlpha" type="matrix" values="0 0 0 0 0 0 0 0 0 0 0 0 0 0 0 0 0 0 127 0" result="hardAlpha"/>
<feMorphology radius="7" operator="erode" in="SourceAlpha" result="effect1_dropShadow"/>
<feOffset dx="-6" dy="3"/>
<feGaussianBlur stdDeviation="6.5"/>
<feColorMatrix type="matrix" values="0 0 0 0 0 0 0 0 0 0 0 0 0 0 0 0 0 0 0.25 0"/>
<feBlend mode="normal" in2="BackgroundImageFix" result="effect1_dropShadow"/>
<feBlend mode="normal" in="SourceGraphic" in2="effect1_dropShadow" result="shape"/>
</filter>
<radialGradient id="paint0_radial" cx="0" cy="0" r="1" gradientUnits="userSpaceOnUse" gradientTransform="translate(347.128 144.482) rotate(137.125) scale(283.277 283.228)">
<stop stop-color="#D3B0B0"/>
<stop offset="1" stop-color="#A7A7A7"/>
</radialGradient>
<radialGradient id="paint1_radial" cx="0" cy="0" r="1" gradientUnits="userSpaceOnUse" gradientTransform="translate(286.963 179.177) rotate(130.263) scale(156.983 156.357)">
<stop stop-color="#AD8D8D"/>
<stop offset="1" stop-color="#999696"/>
</radialGradient>
<linearGradient id="paint2_linear" x1="233.316" y1="86.6831" x2="189.202" y2="86.6831" gradientUnits="userSpaceOnUse">
<stop stop-color="#787878"/>
<stop offset="1" stop-color="#A08A8A"/>
</linearGradient>
<linearGradient id="paint3_linear" x1="100.974" y1="428.983" x2="56.8602" y2="428.983" gradientUnits="userSpaceOnUse">
<stop stop-color="#787878"/>
<stop offset="1" stop-color="#A08A8A"/>
</linearGradient>
<linearGradient id="paint4_linear" x1="127.933" y1="221.159" x2="83.8189" y2="221.159" gradientUnits="userSpaceOnUse">
<stop stop-color="#787878"/>
<stop offset="1" stop-color="#A08A8A"/>
</linearGradient>
<linearGradient id="paint5_linear" x1="56.86" y1="32.8942" x2="24.9999" y2="32.8942" gradientUnits="userSpaceOnUse">
<stop stop-color="#787878"/>
<stop offset="1" stop-color="#A08A8A"/>
</linearGradient>
<linearGradient id="paint6_linear" x1="172.047" y1="494.998" x2="149.99" y2="494.998" gradientUnits="userSpaceOnUse">
<stop stop-color="#787878"/>
<stop offset="1" stop-color="#A08A8A"/>
</linearGradient>
<linearGradient id="paint7_linear" x1="306.84" y1="17.0025" x2="284.783" y2="17.0025" gradientUnits="userSpaceOnUse">
<stop stop-color="#787878"/>
<stop offset="1" stop-color="#A08A8A"/>
</linearGradient>
<linearGradient id="paint8_linear" x1="270.338" y1="442.331" x2="240.434" y2="447.449" gradientUnits="userSpaceOnUse">
<stop stop-color="#787878"/>
<stop offset="1" stop-color="#A08A8A"/>
</linearGradient>
<linearGradient id="paint9_linear" x1="370.269" y1="350.065" x2="394.777" y2="350.065" gradientUnits="userSpaceOnUse">
<stop stop-color="#8E8383"/>
<stop offset="1" stop-color="#C7A4A4"/>
</linearGradient>
<linearGradient id="paint10_linear" x1="373.673" y1="223.74" x2="391.373" y2="223.74" gradientUnits="userSpaceOnUse">
<stop stop-color="#8E8383"/>
<stop offset="1" stop-color="#C7A4A4"/>
</linearGradient>
<linearGradient id="paint11_linear" x1="443.792" y1="159.898" x2="468.3" y2="159.898" gradientUnits="userSpaceOnUse">
<stop stop-color="#8E8383"/>
<stop offset="1" stop-color="#C7A4A4"/>
</linearGradient>
<linearGradient id="paint12_linear" x1="428.815" y1="275.356" x2="453.323" y2="275.356" gradientUnits="userSpaceOnUse">
<stop stop-color="#8E8383"/>
<stop offset="1" stop-color="#C7A4A4"/>
</linearGradient>
<linearGradient id="paint13_linear" x1="468.3" y1="379.948" x2="486" y2="379.948" gradientUnits="userSpaceOnUse">
<stop stop-color="#8E8383"/>
<stop offset="1" stop-color="#C7A4A4"/>
</linearGradient>
<linearGradient id="paint14_linear" x1="335.55" y1="293.014" x2="347.804" y2="293.014" gradientUnits="userSpaceOnUse">
<stop stop-color="#8E8383"/>
<stop offset="1" stop-color="#C7A4A4"/>
</linearGradient>
<linearGradient id="paint15_linear" x1="404.307" y1="123.224" x2="416.561" y2="123.224" gradientUnits="userSpaceOnUse">
<stop stop-color="#8E8383"/>
<stop offset="1" stop-color="#C7A4A4"/>
</linearGradient>
<linearGradient id="paint16_linear" x1="329.422" y1="388.776" x2="341.676" y2="388.776" gradientUnits="userSpaceOnUse">
<stop stop-color="#8E8383"/>
<stop offset="1" stop-color="#C7A4A4"/>
</linearGradient>
<linearGradient id="paint17_linear" x1="349.701" y1="152.484" x2="366.314" y2="149.64" gradientUnits="userSpaceOnUse">
<stop stop-color="#8E8383"/>
<stop offset="1" stop-color="#C7A4A4"/>
</linearGradient>
</defs>
</svg>
